# File created by Blade
# Date/Time:  Wed Jan 21 16:09:38 2015
# Frame Rate: 120.000 fps
#------------------------------------------------------
:FULLY-SPECIFIED
:DEGREES
713
root 22.057527 36.099013 -21.915458 -171.343091 33.282500 -185.738877
Spine -6.394316 -2.048678 -1.878997
Head -2.033290 3.760553 -3.415303
LeftShoulder -16.942610 -35.966328 22.669882
LeftArm -16.729080 1.058471 -17.841959
LeftForeArm 0.758613 0.000000 0.296248
LeftHand -9.488108 -0.000000 11.287865
LeftHandThumb1 -26.253704 0.000000 33.147579
RightShoulder -11.680947 -2.312144 -16.881001
RightArm -10.889426 42.902923 16.335286
RightForeArm -26.065102 -0.000000 9.801012
RightHand -18.764696 0.000000 -10.865009
RightHandThumb1 -24.326973 -0.000000 -32.862282
LeftUpLeg 3.039846 -4.342874 6.077676
LeftLeg -3.115939 -0.000000 0.000000
LeftFoot 5.148341 23.982612 6.345374
LeftToeBase -156.260784 -0.000000 0.000000
RightUpLeg -16.523252 -29.597117 4.647349
RightLeg -4.833439 -0.000000 0.000000
RightFoot -11.678214 -44.472581 6.482875
RightToeBase 5.740392 -0.000000 -0.000000
714
root 22.044778 36.103133 -21.939431 -171.510403 32.765272 -185.801357
Spine -6.475096 -1.659930 -2.032941
Head -1.959282 3.837456 -3.612318
LeftShoulder -17.033130 -35.932238 22.492821
LeftArm -15.784708 1.209509 -17.675434
LeftForeArm 1.139527 -0.000000 0.142868
LeftHand -9.505450 -0.000000 11.098466
LeftHandThumb1 -26.253704 0.000000 33.147579
RightShoulder -11.598604 -2.563466 -16.900989
RightArm -10.699953 43.044222 16.357848
RightForeArm -26.016447 -0.000000 9.709497
RightHand -18.574769 -0.000000 -10.834690
RightHandThumb1 -24.326973 -0.000000 -32.862282
LeftUpLeg 3.084029 -2.524422 5.866764
LeftLeg -3.514529 -0.000000 0.000000
LeftFoot 4.541401 24.280323 6.680179
LeftToeBase -155.028062 -0.000000 0.000000
RightUpLeg -16.268972 -30.026930 4.505138
RightLeg -4.913837 -0.000000 0.000000
RightFoot -11.570530 -44.616288 6.329551
RightToeBase 5.881106 -0.000000 -0.000000
715
root 22.022751 36.102863 -21.961705 -171.670166 32.239269 -185.822660
Spine -6.516095 -1.309951 -2.097377
Head -1.916057 3.938366 -3.845180
LeftShoulder -17.166547 -35.774384 22.264188
LeftArm -14.715535 1.369482 -17.599143
LeftForeArm 1.177209 -0.000000 -0.123522
LeftHand -9.453515 -0.000000 11.225613
LeftHandThumb1 -26.253704 0.000000 33.147579
RightShoulder -11.485599 -2.564269 -17.082195
RightArm -10.580247 42.962297 16.436866
RightForeArm -26.106634 -0.000000 9.742139
RightHand -18.707334 -0.000000 -10.716630
RightHandThumb1 -24.326973 -0.000000 -32.862282
LeftUpLeg 3.123901 -0.526695 5.658694
LeftLeg -3.908929 -0.000000 0.000000
LeftFoot 4.197070 24.469550 6.830757
LeftToeBase -153.518381 -0.000000 0.000000
RightUpLeg -16.013373 -30.513599 4.396725
RightLeg -5.002804 -0.000000 0.000000
RightFoot -11.501779 -44.699200 6.255671
RightToeBase 6.002530 -0.000000 -0.000000
716
root 21.995994 36.101115 -21.982664 -171.776956 31.749124 -185.799827
Spine -6.573993 -0.957602 -2.124030
Head -1.873269 4.071342 -4.045034
LeftShoulder -17.339227 -35.630215 22.072627
LeftArm -13.745941 1.360835 -17.442632
LeftForeArm 1.356341 0.000000 -0.253489
LeftHand -9.282631 -0.000000 11.057619
LeftHandThumb1 -26.253704 0.000000 33.147579
RightShoulder -11.444141 -2.592700 -17.227514
RightArm -10.236344 42.941014 16.591507
RightForeArm -26.173118 -0.000000 9.650120
RightHand -18.471251 -0.000000 -10.745085
RightHandThumb1 -24.326973 -0.000000 -32.862282
LeftUpLeg 3.125242 1.648650 5.456066
LeftLeg -4.285086 -0.000000 0.000000
LeftFoot 3.997122 24.381168 6.723960
LeftToeBase -152.082979 -0.000000 0.000000
RightUpLeg -15.834373 -31.011247 4.351821
RightLeg -5.043962 -0.000000 0.000000
RightFoot -11.415274 -44.720143 6.164856
RightToeBase 6.114881 -0.000000 -0.000000
717
root 21.961443 36.096396 -22.001185 -171.869610 31.281757 -185.776083
Spine -6.625172 -0.611606 -2.162119
Head -1.863442 4.207836 -4.199722
LeftShoulder -17.406577 -35.821438 21.987078
LeftArm -13.154241 1.733995 -17.239542
LeftForeArm 1.586329 0.000000 -0.233534
LeftHand -9.293808 -0.000000 10.774090
LeftHandThumb1 -26.253704 0.000000 33.147579
RightShoulder -11.398787 -2.722174 -17.253217
RightArm -9.652738 43.017491 16.708633
RightForeArm -26.281979 -0.000000 9.210849
RightHand -18.096783 -0.000000 -10.814926
RightHandThumb1 -24.326973 -0.000000 -32.862282
LeftUpLeg 3.112588 3.832202 5.225371
LeftLeg -4.671029 -0.000000 0.000000
LeftFoot 3.869444 24.294510 6.410708
LeftToeBase -150.705133 -0.000000 0.000000
RightUpLeg -15.638227 -31.398418 4.271930
RightLeg -5.133228 -0.000000 0.000000
RightFoot -11.281922 -44.805500 6.055782
RightToeBase 6.012511 -0.000000 -0.000000
718
root 21.920926 36.090626 -22.023522 -171.925258 30.787113 -185.726925
Spine -6.722533 -0.275177 -2.138070
Head -1.783690 4.331684 -4.384470
LeftShoulder -17.503681 -35.692394 21.789270
LeftArm -12.321597 1.761241 -17.090249
LeftForeArm 1.862175 -0.000000 -0.251237
LeftHand -9.389122 -0.000000 10.707375
LeftHandThumb1 -26.253704 0.000000 33.147579
RightShoulder -11.293854 -2.770576 -17.346652
RightArm -9.351383 42.700930 16.737796
RightForeArm -26.280593 -0.000000 9.149093
RightHand -18.075194 0.000000 -10.582056
RightHandThumb1 -24.326973 -0.000000 -32.862282
LeftUpLeg 3.067328 6.097320 4.960949
LeftLeg -5.082676 -0.000000 0.000000
LeftFoot 3.782319 23.968319 6.067949
LeftToeBase -149.668068 -0.000000 0.000000
RightUpLeg -15.588757 -32.017732 4.310508
RightLeg -5.104466 -0.000000 0.000000
RightFoot -11.242116 -44.776069 5.992891
RightToeBase 6.399011 -0.000000 -0.000000
719
root 21.875989 36.082772 -22.039915 -171.932236 30.326710 -185.635370
Spine -6.832394 0.047729 -2.079859
Head -1.735917 4.434144 -4.542199
LeftShoulder -17.755867 -35.645625 21.721342
LeftArm -11.445850 1.813212 -16.973138
LeftForeArm 2.296024 -0.000000 -0.306476
LeftHand -9.294523 -0.000000 10.662411
LeftHandThumb1 -26.253704 0.000000 33.147579
RightShoulder -11.227912 -2.901455 -17.411134
RightArm -8.821091 42.532325 16.921118
RightForeArm -26.201494 -0.000000 9.061355
RightHand -18.211211 -0.000000 -10.641912
RightHandThumb1 -24.326973 -0.000000 -32.862282
LeftUpLeg 2.991396 8.305246 4.683624
LeftLeg -5.506624 -0.000000 0.000000
LeftFoot 3.834495 23.553575 5.671858
LeftToeBase -149.027794 -0.000000 0.000000
RightUpLeg -15.499234 -32.444224 4.324892
RightLeg -5.145422 -0.000000 0.000000
RightFoot -11.102750 -44.824485 5.912811
RightToeBase 6.668976 -0.000000 -0.000000
720
root 21.826792 36.071183 -22.053107 -171.897619 29.893623 -185.500245
Spine -6.974735 0.386980 -1.978065
Head -1.635704 4.583467 -4.683743
LeftShoulder -17.880046 -35.505844 21.597259
LeftArm -10.675378 1.885860 -16.881450
LeftForeArm 2.553309 -0.000000 -0.340136
LeftHand -9.221507 -0.000000 10.828539
LeftHandThumb1 -26.253704 0.000000 33.147579
RightShoulder -11.113504 -2.956596 -17.522558
RightArm -8.385537 42.388025 17.037442
RightForeArm -26.408948 -0.000000 8.933577
RightHand -18.029508 -0.000000 -10.647900
RightHandThumb1 -24.326973 -0.000000 -32.862282
LeftUpLeg 2.899783 10.388885 4.419355
LeftLeg -5.946799 -0.000000 0.000000
LeftFoot 4.079524 23.190583 5.334878
LeftToeBase -148.702351 -0.000000 0.000000
RightUpLeg -15.463344 -32.841778 4.389652
RightLeg -5.158919 -0.000000 0.000000
RightFoot -10.987657 -44.875314 5.852485
RightToeBase 6.925696 -0.000000 -0.000000
721
root 21.775766 36.056146 -22.067797 -171.826001 29.419191 -185.309411
Spine -7.124209 0.704017 -1.793812
Head -1.541784 4.696888 -4.875202
LeftShoulder -17.980115 -35.328780 21.375183
LeftArm -9.805564 2.002828 -16.747058
LeftForeArm 2.732479 0.000000 -0.483334
LeftHand -9.133902 0.000000 10.839825
LeftHandThumb1 -26.253704 0.000000 33.147579
RightShoulder -11.075261 -3.084735 -17.630568
RightArm -7.873702 42.340216 17.162410
RightForeArm -26.429493 -0.000000 8.861831
RightHand -17.905546 -0.000000 -10.526570
RightHandThumb1 -24.326973 -0.000000 -32.862282
LeftUpLeg 2.815843 12.266910 4.180746
LeftLeg -6.470380 -0.000000 0.000000
LeftFoot 4.670799 22.781864 4.726880
LeftToeBase -148.216089 -0.000000 0.000000
RightUpLeg -15.433495 -33.295723 4.509546
RightLeg -5.173475 -0.000000 0.000000
RightFoot -10.827501 -44.888316 5.766957
RightToeBase 7.399204 -0.000000 -0.000000
